<svg version="1.1" id="Layer_1" xmlns="http://www.w3.org/2000/svg" xmlns:xlink="http://www.w3.org/1999/xlink" x="0px" y="0px" viewBox="0 0 250 62.5" style="enable-background:new 0 0 250 62.5;" xml:space="preserve">
<style type="text/css">
	.st0{fill:#231F20;}
</style>
<g>
	<g>
		<path class="st0" d="M23,34.33c0.64-0.69,5.23-11.65,5.6-12.25c0.32-0.64,5.32-11.42,5.46-12.34c0.09-0.5,0.6-0.55,1.06-0.55
			c6.1,0,7.66-0.14,8.17-0.14c0.23,0,0.28,0.14,0.28,0.32v1.06c0,0.28-0.05,0.41-0.37,0.41h-2.02c-1.38,0-1.51,0.83-1.51,1.88
			c0,1.33-0.14,7.89-0.14,10.96v3.21c0,2.29,0.14,9.73,0.14,10.64c0,1.74,0.41,2.48,1.56,2.48h2.71c0.28,0,0.32,0.14,0.32,0.32v1.06
			c0,0.27-0.05,0.41-0.41,0.41c-0.55,0-1.38-0.14-6.42-0.14c-4.22,0-6.01,0.14-6.61,0.14c-0.32,0-0.37-0.14-0.37-0.41v-1.06
			c0-0.23,0.05-0.32,0.37-0.32h3.12c0.78,0,1.19-0.28,1.28-1.65c0.05-0.55,0.09-8.53,0.09-11.93V23.5c0-3.03,0-11.19-0.14-11.61
			h-0.09c-0.46,0.6-6.97,15.05-7.2,15.51c-0.28,0.55-5.37,12.25-5.55,12.66c-0.18,0.41-0.55,1.1-0.92,1.1
			c-0.28,0-0.5-0.37-0.69-0.83c-0.14-0.32-6.01-14.82-6.24-15.37c-0.87-2.11-5.05-12.39-5.69-12.94C8.59,12.67,8.5,24.28,8.5,24.83
			c0,0.55-0.05,10.23,0.09,11.84c0.23,2.61,0.64,3.35,2.11,3.35h2.29c0.27,0,0.32,0.14,0.32,0.32v1.15c0,0.18-0.05,0.32-0.41,0.32
			c-0.5,0-1.74-0.14-5.55-0.14c-3.9,0-5.5,0.14-5.92,0.14c-0.37,0-0.41-0.05-0.41-0.41v-1.1c0-0.14,0.05-0.27,0.28-0.27h2.43
			c1.74,0,2.16-1.19,2.43-2.75c0.55-3.26,0.69-15,0.69-15.83c0-0.64,0-7.57-0.05-8.9c-0.05-1.06,0-1.7-1.88-1.7h-2.8
			c-0.28,0-0.32-0.14-0.32-0.32V9.32c0-0.14,0.05-0.28,0.32-0.28c0.46,0,1.7,0.14,5.6,0.14c2.16,0,3.35-0.14,3.9-0.14
			c0.69,0,0.96,0.18,1.19,0.78L23,34.33z"></path>
		<path class="st0" d="M52.08,22.44c0-1.1-0.14-9.36-0.18-10.05c-0.09-1.1-0.55-1.56-2.29-1.56h-2.66c-0.23,0-0.37-0.09-0.37-0.28
			V9.32c0-0.18,0.14-0.28,0.32-0.28c0.55,0,2.89,0.14,7.16,0.14c4.08,0,5.55-0.14,6.19-0.14c0.23,0,0.32,0.14,0.32,0.32v1.15
			c0,0.23-0.14,0.32-0.37,0.32h-2.16c-0.92,0-1.61,0.37-1.61,1.28c0,0.46-0.14,10.6-0.14,11.15v3.53c0,0.46,0.14,11.06,0.14,11.56
			c0,1.42,0.69,1.65,2.16,1.65h1.88c0.23,0,0.37,0.09,0.37,0.32v1.19c0,0.18-0.14,0.28-0.41,0.28c-0.55,0-2.39-0.14-6.38-0.14
			c-4.36,0-6.33,0.14-6.84,0.14c-0.23,0-0.37-0.09-0.37-0.28v-1.24c0-0.18,0.14-0.27,0.37-0.27h2.57c0.92,0,1.88-0.14,2.06-1.33
			c0.09-0.69,0.23-10.6,0.23-13.03V22.44z"></path>
		<path class="st0" d="M68.78,39.97c-0.55-0.41-0.83-0.55-1.06-0.55c-0.28,0-0.46,0.32-0.73,0.78c-0.28,0.5-0.5,0.55-0.83,0.55
			c-0.28,0-0.5-0.23-0.41-0.73c0.18-1.15,0.64-6.97,0.78-8.3c0.05-0.27,0.14-0.27,0.32-0.27l0.69,0.05c0.18,0,0.28,0.09,0.28,0.37
			c0.05,1.47,0.14,2.98,1.65,5.32c1.38,2.16,3.9,3.39,6.42,3.39c2.75,0,6.24-1.7,6.24-5.83c0-4.73-3.39-6.47-7.06-7.75
			c-1.42-0.5-4.73-1.65-6.7-3.72c-1.51-1.51-2.29-3.67-2.29-6.7c0-2.29,1.42-4.54,2.84-5.87c1.65-1.56,3.95-2.2,6.42-2.2
			c2.62,0,4.63,0.78,5.41,1.15c0.41,0.23,0.64,0.18,0.87-0.05l0.6-0.55c0.23-0.18,0.37-0.28,0.6-0.28c0.23,0,0.37,0.37,0.37,0.78
			c0,1.61,0.6,6.29,0.64,7.29c0,0.23-0.05,0.32-0.23,0.37l-0.55,0.14c-0.14,0.05-0.23,0-0.28-0.14c-0.37-1.33-0.96-3.12-2.84-5.09
			c-1.24-1.33-2.84-1.97-5-1.97c-4.08,0-5.55,3.03-5.55,5.37c0,1.28,0.28,2.8,1.42,3.99c1.33,1.33,3.9,2.34,5.23,2.75
			c3.17,1.01,5.73,1.79,7.39,3.81c1.19,1.42,2.02,3.21,2.02,6.24c0,5.41-3.3,10.05-9.36,10.05C72.86,42.35,70.61,41.39,68.78,39.97z"></path>
		<path class="st0" d="M93.92,39.97c-0.55-0.41-0.83-0.55-1.06-0.55c-0.28,0-0.46,0.32-0.73,0.78c-0.28,0.5-0.5,0.55-0.83,0.55
			c-0.27,0-0.5-0.23-0.41-0.73c0.18-1.15,0.64-6.97,0.78-8.3c0.05-0.27,0.14-0.27,0.32-0.27l0.69,0.05c0.18,0,0.28,0.09,0.28,0.37
			c0.05,1.47,0.14,2.98,1.65,5.32c1.38,2.16,3.9,3.39,6.42,3.39c2.75,0,6.24-1.7,6.24-5.83c0-4.73-3.39-6.47-7.06-7.75
			c-1.42-0.5-4.73-1.65-6.7-3.72c-1.51-1.51-2.29-3.67-2.29-6.7c0-2.29,1.42-4.54,2.84-5.87c1.65-1.56,3.95-2.2,6.42-2.2
			c2.61,0,4.63,0.78,5.41,1.15c0.41,0.23,0.64,0.18,0.87-0.05l0.6-0.55c0.23-0.18,0.37-0.28,0.6-0.28c0.23,0,0.37,0.37,0.37,0.78
			c0,1.61,0.6,6.29,0.64,7.29c0,0.23-0.05,0.32-0.23,0.37l-0.55,0.14c-0.14,0.05-0.23,0-0.27-0.14c-0.37-1.33-0.96-3.12-2.84-5.09
			c-1.24-1.33-2.84-1.97-5-1.97c-4.08,0-5.55,3.03-5.55,5.37c0,1.28,0.28,2.8,1.42,3.99c1.33,1.33,3.9,2.34,5.23,2.75
			c3.17,1.01,5.73,1.79,7.39,3.81c1.19,1.42,2.02,3.21,2.02,6.24c0,5.41-3.3,10.05-9.36,10.05C98,42.35,95.75,41.39,93.92,39.97z"></path>
		<path class="st0" d="M130.98,20.79c0-3.39,0-6.33-0.05-7.66c-0.05-1.51-0.6-2.29-1.74-2.29h-1.83c-0.23,0-0.28-0.14-0.28-0.32
			V9.37c0-0.23,0.05-0.32,0.28-0.32c0.41,0,1.83,0.14,5.69,0.14c2.57,0,6.84-0.14,7.66-0.14c3.81,0,6.84,1.15,8.58,2.8
			c1.51,1.47,2.39,3.53,2.39,5.23c0,5.73-2.61,7.89-8.49,9.17v0.09c1.1,0.41,1.74,1.24,2.11,1.74c0.55,0.6,3.81,5.28,4.17,5.87
			c0.23,0.46,3.17,4.63,4.04,5.27c0.96,0.69,2.02,0.78,3.3,0.78c0.32,0,0.37,0.18,0.37,0.37v1.01c0,0.27-0.05,0.41-0.37,0.41
			c-0.37,0-1.56-0.14-3.58-0.14c-1.33,0-3.03,0.09-3.72,0.14c-0.5-0.46-1.51-2.02-1.93-2.61c-0.37-0.55-2.84-4.91-3.07-5.28
			c-0.18-0.32-2.39-3.62-2.94-4.27c-1.19-1.42-2.29-2.66-4.95-2.66c-0.41,0-0.87,0-1.51,0.14v2.57c0,2.71,0.05,7.84,0.09,8.53
			c0.09,0.96,0.46,1.79,1.15,1.79h2.89c0.32,0,0.37,0.14,0.37,0.37v1.01c0,0.32-0.05,0.41-0.5,0.41c-0.5,0-1.65-0.14-6.01-0.14
			c-4.17,0-5.23,0.14-5.73,0.14c-0.37,0-0.37-0.14-0.37-0.37v-1.06c0-0.23,0-0.37,0.23-0.37h1.88c1.01,0,1.79-0.32,1.79-1.56
			c0.09-4.54,0.09-8.85,0.09-13.21V20.79z M135.11,25.33c0.69,0.14,1.19,0.18,2.06,0.18c8.35,0,9.95-5.73,9.95-7.66
			c0-2.11-0.96-4.13-2.29-5.23c-1.79-1.42-3.81-2.11-7.61-2.11c-0.55,0-1.15,0.09-1.56,0.37c-0.32,0.23-0.55,0.73-0.55,1.47V25.33z"></path>
		<path class="st0" d="M164.84,39.37c-3.26-1.97-6.74-6.93-6.74-13.62c0-2.8,0.73-7.16,4.27-11.42c4.04-4.91,8.58-5.83,12.43-5.83
			c2.89,0,6.65,0.6,10.28,3.62c3.35,2.89,6.28,7.39,6.28,13.72c0,3.35-1.06,6.84-3.44,10.05c-2.8,3.72-6.88,6.47-13.21,6.47
			C172.46,42.35,168.47,41.62,164.84,39.37z M186.86,26.21c0-10.05-7.16-15.96-12.25-15.96c-0.69,0-3.81-0.55-7.25,2.71
			c-3.07,2.94-4.59,7.57-4.59,11.33c0,12.07,8.4,16.33,12.29,16.33C185.16,40.61,186.86,30.29,186.86,26.21z"></path>
		<path class="st0" d="M199.66,39.97c-0.55-0.41-0.83-0.55-1.06-0.55c-0.27,0-0.46,0.32-0.73,0.78c-0.28,0.5-0.5,0.55-0.83,0.55
			c-0.28,0-0.5-0.23-0.41-0.73c0.18-1.15,0.64-6.97,0.78-8.3c0.05-0.27,0.14-0.27,0.32-0.27l0.69,0.05c0.18,0,0.27,0.09,0.27,0.37
			c0.05,1.47,0.14,2.98,1.65,5.32c1.38,2.16,3.9,3.39,6.42,3.39c2.75,0,6.24-1.7,6.24-5.83c0-4.73-3.4-6.47-7.07-7.75
			c-1.42-0.5-4.73-1.65-6.7-3.72c-1.51-1.51-2.29-3.67-2.29-6.7c0-2.29,1.42-4.54,2.84-5.87c1.65-1.56,3.94-2.2,6.42-2.2
			c2.61,0,4.63,0.78,5.41,1.15c0.41,0.23,0.64,0.18,0.87-0.05l0.6-0.55c0.23-0.18,0.37-0.28,0.6-0.28s0.37,0.37,0.37,0.78
			c0,1.61,0.6,6.29,0.64,7.29c0,0.23-0.05,0.32-0.23,0.37l-0.55,0.14c-0.14,0.05-0.23,0-0.28-0.14c-0.37-1.33-0.96-3.12-2.84-5.09
			c-1.24-1.33-2.84-1.97-5-1.97c-4.08,0-5.55,3.03-5.55,5.37c0,1.28,0.27,2.8,1.42,3.99c1.33,1.33,3.9,2.34,5.23,2.75
			c3.17,1.01,5.73,1.79,7.39,3.81c1.19,1.42,2.02,3.21,2.02,6.24c0,5.41-3.3,10.05-9.36,10.05
			C203.74,42.35,201.5,41.39,199.66,39.97z"></path>
		<path class="st0" d="M229.62,24.1c0.37,0,5.28-0.18,5.83-0.28c1.33-0.23,1.7-0.6,2.11-2.02c0.14-0.46,0.32-1.38,0.37-2.25
			c0-0.23,0.14-0.32,0.32-0.32l1.15,0.05c0.23,0,0.32,0.18,0.27,0.37c-0.14,0.78-0.14,4.54-0.14,5.23c0,1.61,0.18,3.81,0.28,4.77
			c0,0.23-0.09,0.32-0.28,0.37l-1.01,0.14c-0.23,0.05-0.32-0.09-0.37-0.41c-0.09-0.6-0.37-1.65-0.51-2.16
			c-0.27-0.96-0.78-1.65-1.97-1.79c-2.16-0.23-5.32-0.23-6.06-0.23v2.84c0,2.48,0.09,6.93,0.09,7.84c0.05,2.39,1.19,3.3,2.61,3.58
			c0.92,0.18,2.25,0.32,3.4,0.32c0.78,0,3.07-0.05,4.04-0.14c0.78-0.09,2.8-0.6,3.99-1.61c0.55-0.46,3.12-3.76,3.76-4.82
			c0.14-0.23,0.28-0.41,0.55-0.27l0.73,0.41c0.23,0.14,0.23,0.27,0.09,0.64l-2.43,6.74c-0.14,0.41-0.46,0.69-1.01,0.69
			c-0.23,0-1.24-0.05-3.99-0.09c-2.75,0-7.2-0.05-14.36-0.05c-1.7,0-2.98,0.05-3.9,0.05c-0.96,0.05-1.56,0.09-1.97,0.09
			c-0.27,0-0.41-0.09-0.41-0.32v-1.24c0-0.18,0.14-0.23,0.46-0.23h1.84c2.11,0,2.29-0.32,2.29-2.02V27.12v-4.5
			c0-3.81-0.09-9.54-0.14-10c-0.18-1.47-0.64-1.79-2.34-1.79h-1.65c-0.23,0-0.37-0.05-0.37-0.32V9.28c0-0.14,0.09-0.23,0.32-0.23
			c1.01,0,2.61,0.14,5.64,0.14h2.02c4.54,0,9.08-0.05,13.62-0.05c0.73,0,1.61-0.09,1.83-0.09c0.23,0,0.32,0.09,0.37,0.23
			c0.18,0.64,2.2,6.93,2.34,7.39c0.05,0.18,0.05,0.32-0.14,0.41l-0.69,0.37c-0.14,0.09-0.32-0.05-0.37-0.14
			c-0.09-0.18-3.49-4.54-4.59-5.23c-0.96-0.64-2.25-1.19-3.49-1.24l-8.17-0.18V24.1z"></path>
	</g>
	<path class="st0" d="M173.71,4.78l-1.72,1.02c-1.15,0.67-2.31,1.33-3.49,1.96c-1.18,0.63-2.36,1.25-3.57,1.83
		c-0.91,0.43-1.82,0.86-2.75,1.25c-0.19,0.08-0.35-0.17-0.19-0.31c0.76-0.67,1.54-1.31,2.32-1.94c1.05-0.83,2.12-1.64,3.2-2.42
		c1.08-0.79,2.18-1.54,3.28-2.29l1.67-1.1l1.69-1.07l0.54-0.34c0.06-0.04,0.14-0.04,0.2,0l0.54,0.35c1.1,0.71,2.2,1.43,3.28,2.18
		c1.08,0.74,2.16,1.51,3.21,2.29c1.06,0.79,2.1,1.59,3.13,2.42c0.76,0.62,1.52,1.25,2.25,1.91c0.15,0.14-0.01,0.39-0.2,0.31
		c-0.91-0.39-1.8-0.81-2.68-1.24c-1.19-0.58-2.35-1.2-3.51-1.83c-1.15-0.63-2.29-1.29-3.42-1.96c-0.56-0.33-1.12-0.67-1.67-1.01
		C175.17,4.37,174.36,4.38,173.71,4.78L173.71,4.78z"></path>
	<line class="st0" x1="174.65" y1="2.94" x2="174.64" y2="2.94"></line>
	<g>
		<path class="st0" d="M26.11,53.75c0-1.02,0-2.65-0.02-2.82c-0.03-0.26-0.2-0.34-0.54-0.34h-0.8c-0.06,0-0.09-0.03-0.09-0.11V50.1
			c0-0.09,0.03-0.12,0.09-0.12c0.18,0,0.74,0.05,2.28,0.05c0.28,0,1.17-0.05,1.7-0.05c1.85,0,2.74,0.17,3.64,0.79
			c0.71,0.52,1.17,1.39,1.17,2.34c0,1.91-1.48,3.11-4.1,3.11c-0.52,0-0.99,0-1.39-0.06v0.68c0,0.74,0,2.83,0.02,3.04
			c0.05,0.34,0.2,0.49,0.48,0.49h0.86c0.12,0,0.12,0.06,0.12,0.11v0.35c0,0.09,0,0.15-0.12,0.15c-0.22,0-0.71-0.05-2.37-0.05
			c-1.36,0-1.97,0.05-2.13,0.05c-0.12,0-0.12-0.06-0.12-0.11v-0.39c0-0.09,0-0.12,0.09-0.12h0.49c0.52,0,0.65-0.06,0.69-0.48
			c0.02-0.15,0.05-2.56,0.05-4.34V53.75z M28.06,55.6c0.28,0.09,0.71,0.12,1.11,0.12c0.68,0,1.48-0.52,1.85-1.05
			c0.31-0.46,0.37-1.05,0.37-1.6c0-2.1-1.7-2.57-2.43-2.57c-0.28,0-0.65-0.01-0.89,0.11V55.6z"></path>
		<path class="st0" d="M37.66,56.89c0,0.93,0.03,2.65,0.06,2.88c0.05,0.31,0.15,0.59,0.4,0.59h0.77c0.09,0,0.12,0.05,0.12,0.11v0.37
			c0,0.11-0.05,0.14-0.17,0.14c-0.2,0-0.51-0.05-2.11-0.05c-1.51,0-1.88,0.05-2.03,0.05c-0.09,0-0.12-0.05-0.12-0.14v-0.35
			c0-0.08,0.03-0.12,0.09-0.12h0.52c0.34,0,0.59-0.09,0.59-0.51c0.03-1.54,0.03-2.99,0.03-4.44v-4.05c0-0.52-0.22-0.77-0.49-0.77
			h-0.6c-0.08,0-0.11-0.03-0.11-0.09v-0.42c0-0.08,0.03-0.11,0.11-0.11c0.11,0,0.6,0.05,2.11,0.05c0.86,0,2.28-0.05,2.74-0.05
			c1.23,0,2.19,0.42,2.8,0.97c0.55,0.49,0.83,1.14,0.83,1.73c0,1.94-1.17,2.74-2.87,3.02v0.06c0.43,0.15,0.71,0.43,0.92,0.71
			c0.19,0.25,1.14,1.7,1.26,1.88c0.09,0.15,1.08,1.54,1.31,1.76c0.29,0.26,0.72,0.29,1.09,0.29c0.09,0,0.12,0.05,0.12,0.11v0.32
			c0,0.11-0.03,0.15-0.12,0.15c-0.12,0-0.52-0.05-1.51-0.05c-0.43,0-1.02,0.03-1.36,0.05c-0.19-0.14-0.48-0.55-0.68-0.88
			c-0.28-0.43-0.88-1.54-1.02-1.79c-0.15-0.28-0.59-0.99-0.83-1.33c-0.39-0.54-0.74-0.96-1.39-0.96c-0.06,0-0.32,0.02-0.49,0.03
			V56.89z M37.69,55.51c0.22,0.03,0.4,0.06,0.59,0.06c2.4,0,2.9-1.94,2.9-2.65c0-0.71-0.29-1.37-0.68-1.73
			c-0.55-0.49-1.26-0.66-2.03-0.66c-0.25,0-0.43,0.01-0.55,0.09c-0.12,0.08-0.19,0.26-0.19,0.45L37.69,55.51z"></path>
		<path class="st0" d="M54.79,51.02c1.16,0.94,2.1,2.47,2.1,4.56c0,1.14-0.31,2.34-1.14,3.39c-0.99,1.23-2.31,2.19-4.62,2.19
			c-0.92,0-2.25-0.28-3.48-1.02c-1.09-0.66-2.25-2.34-2.25-4.56c0-0.93,0.26-2.39,1.42-3.82c1.36-1.66,3.02-1.97,4.35-1.97
			C52.3,49.79,53.53,50,54.79,51.02z M48.88,51.33c-0.94,0.91-1.39,2.5-1.39,3.73c0,4.01,2.47,5.42,3.76,5.42
			c3.11,0,3.61-3.45,3.61-4.75c0-3.36-2.28-5.27-3.76-5.27C50.82,50.47,49.92,50.31,48.88,51.33z"></path>
		<path class="st0" d="M61.67,55.49c0.43,0,1.4-0.02,1.65-0.08c0.31-0.03,0.55-0.22,0.82-0.6c0.12-0.2,0.22-0.51,0.28-0.79
			c0.02-0.06,0.06-0.12,0.12-0.12l0.31,0.03c0.06,0,0.09,0.03,0.09,0.09c-0.03,0.28-0.03,1.54-0.03,1.76c0,0.55,0.06,1.29,0.09,1.6
			c0.02,0.11-0.03,0.14-0.09,0.15l-0.34,0.06c-0.06,0-0.11-0.03-0.12-0.12c-0.02-0.11-0.15-0.59-0.23-0.73
			c-0.18-0.34-0.46-0.57-0.77-0.63c-0.59-0.09-1.31-0.09-1.77-0.09v3.84c0,0.43,0.12,0.49,0.49,0.49h0.83
			c0.09,0,0.12,0.03,0.12,0.11v0.39c0,0.09-0.03,0.12-0.12,0.12c-0.15,0-0.77-0.05-2.28-0.05c-1.39,0-1.97,0.05-2.19,0.05
			c-0.06,0-0.09-0.03-0.09-0.11v-0.42c0-0.06,0.03-0.09,0.09-0.09h0.62c0.37,0,0.49-0.06,0.51-0.32c0.02-0.31,0.05-2.25,0.05-4.9
			v-1.08c0-0.68-0.03-2.87-0.03-3.04c0-0.28-0.22-0.43-0.62-0.43h-0.77c-0.06,0-0.12-0.03-0.12-0.08v-0.45
			c0-0.06,0.06-0.09,0.12-0.09c0.15,0,0.74,0.05,2.5,0.05c0.22,0,4.28-0.03,5.27-0.03c0.28,0,0.52-0.06,0.59-0.06
			c0.06,0.03,0.09,0.09,0.09,0.22c0.06,0.25,0.55,2.37,0.62,2.56c0.02,0.06,0,0.11-0.05,0.12L67,52.95c-0.06,0.03-0.09,0-0.18-0.12
			c-0.15-0.28-0.56-0.8-1.11-1.42c-0.25-0.34-0.65-0.62-1.05-0.71c-0.4-0.08-2.4-0.14-2.99-0.14V55.49z"></path>
		<path class="st0" d="M71.39,56.46c0.02,0.83,0.05,2.34,0.05,2.62c0,0.8,0.28,1.11,0.62,1.2c0.25,0.06,0.62,0.12,1.2,0.12
			c0.28,0,0.99-0.03,1.29-0.06c0.28-0.03,0.86-0.19,1.26-0.52c0.28-0.25,1.14-1.26,1.43-1.63c0.06-0.08,0.11-0.09,0.17-0.06
			l0.25,0.15c0.05,0.03,0.06,0.08,0.03,0.15l-0.74,2.31c-0.05,0.14-0.15,0.23-0.34,0.23c-0.08,0-0.42-0.02-1.37-0.03
			c-0.97,0-2.56-0.02-5.13-0.02c-0.57,0-0.99,0.02-1.31,0.02c-0.31,0.01-0.52,0.03-0.66,0.03c-0.09,0-0.12-0.03-0.12-0.12v-0.37
			c0-0.09,0.03-0.12,0.15-0.12h0.52c0.71,0,0.77-0.09,0.77-0.66v-3.67v-1.51c0-1.26-0.03-3.17-0.06-3.39
			c-0.06-0.42-0.22-0.54-0.68-0.54h-0.59c-0.06,0-0.09-0.03-0.09-0.11v-0.4c0-0.08,0.02-0.11,0.09-0.11c0.34,0,0.89,0.06,2.16,0.05
			h0.43c0.68,0,4.22-0.03,4.9-0.03c0.25,0,0.54-0.01,0.62-0.01c0.08,0,0.11,0.03,0.12,0.09c0.06,0.2,0.65,2.3,0.71,2.45
			c0.03,0.09,0.02,0.14-0.05,0.17l-0.28,0.12c-0.05,0.02-0.09,0-0.14-0.08c-0.06-0.09-1.33-1.51-1.7-1.73
			c-0.32-0.18-0.74-0.39-1.17-0.4l-2.34-0.06L71.37,55c0.46,0,1.57-0.03,1.76-0.08c0.34-0.06,0.52-0.19,0.71-0.55
			c0.09-0.2,0.25-0.59,0.25-0.86c0-0.09,0.06-0.12,0.12-0.12l0.4,0.03c0.06,0,0.11,0.03,0.09,0.12c-0.03,0.25-0.03,1.26-0.03,1.66
			c0,0.62,0.06,1.36,0.09,1.69c0,0.08-0.03,0.09-0.12,0.11l-0.34,0.06c-0.06,0.02-0.09-0.01-0.12-0.11
			c-0.06-0.25-0.17-0.59-0.25-0.77c-0.14-0.31-0.43-0.52-0.77-0.55c-0.55-0.06-1.29-0.09-1.79-0.09L71.39,56.46z"></path>
		<path class="st0" d="M79.4,57.49c0.06,0,0.09,0.03,0.09,0.12c0.03,0.49,0.15,1.08,0.59,1.76c0.46,0.74,1.26,1.11,2.03,1.11
			c0.83,0,2-0.52,2-1.8c0-1.42-0.65-1.88-2.28-2.5c-0.49-0.19-1.51-0.62-2.25-1.29c-0.52-0.49-0.77-1.26-0.77-2.2
			c0-0.86,0.34-1.57,1.08-2.16c0.62-0.52,1.29-0.74,2.19-0.74c1.02,0,1.63,0.25,1.94,0.37c0.15,0.06,0.25,0.03,0.32-0.05l0.2-0.2
			c0.06-0.06,0.12-0.09,0.22-0.09s0.12,0.09,0.12,0.25c0,0.25,0.25,2.4,0.25,2.56c0,0.06-0.03,0.09-0.09,0.11l-0.25,0.08
			c-0.06,0.02-0.12,0-0.15-0.09c-0.15-0.43-0.4-1.05-0.96-1.63c-0.4-0.43-0.89-0.65-1.6-0.65c-1.23,0-1.73,0.99-1.73,1.56
			c0,0.52,0.06,0.99,0.43,1.39c0.4,0.4,1.26,0.77,1.88,0.96c0.89,0.28,1.63,0.59,2.22,1.2c0.49,0.52,0.77,1.17,0.77,2.2
			c0,1.88-1.23,3.42-3.27,3.42c-1.26,0-2-0.28-2.62-0.74c-0.18-0.12-0.28-0.19-0.37-0.19c-0.09,0-0.15,0.12-0.25,0.28
			c-0.09,0.15-0.15,0.18-0.28,0.18c-0.12,0-0.19-0.09-0.19-0.25c0.03-0.19,0.25-2.68,0.28-2.87c0.02-0.09,0.03-0.12,0.09-0.12
			L79.4,57.49z"></path>
		<path class="st0" d="M87.91,57.49c0.06,0,0.09,0.03,0.09,0.12c0.03,0.49,0.15,1.08,0.59,1.76c0.46,0.74,1.26,1.11,2.03,1.11
			c0.83,0,2-0.52,2-1.8c0-1.42-0.65-1.88-2.28-2.5c-0.49-0.19-1.51-0.62-2.25-1.29c-0.52-0.49-0.77-1.26-0.77-2.2
			c0-0.86,0.34-1.57,1.08-2.16c0.62-0.52,1.29-0.74,2.19-0.74c1.02,0,1.63,0.25,1.94,0.37c0.15,0.06,0.25,0.03,0.32-0.05l0.2-0.2
			c0.06-0.06,0.12-0.09,0.22-0.09c0.09,0,0.12,0.09,0.12,0.25c0,0.25,0.25,2.4,0.25,2.56c0,0.06-0.03,0.09-0.09,0.11l-0.25,0.08
			c-0.06,0.02-0.12,0-0.15-0.09c-0.15-0.43-0.4-1.05-0.96-1.63c-0.4-0.43-0.89-0.65-1.6-0.65c-1.23,0-1.73,0.99-1.73,1.56
			c0,0.52,0.06,0.99,0.43,1.39c0.4,0.4,1.26,0.77,1.88,0.96c0.89,0.28,1.63,0.59,2.22,1.2c0.49,0.52,0.77,1.17,0.77,2.2
			c0,1.88-1.23,3.42-3.27,3.42c-1.26,0-2-0.28-2.62-0.74c-0.18-0.12-0.28-0.19-0.37-0.19c-0.09,0-0.15,0.12-0.25,0.28
			c-0.09,0.15-0.15,0.18-0.28,0.18c-0.12,0-0.19-0.09-0.19-0.25c0.03-0.19,0.25-2.68,0.28-2.87c0.02-0.09,0.03-0.12,0.09-0.12
			L87.91,57.49z"></path>
		<path class="st0" d="M98.85,55.94c0,0.15,0.03,3.7,0.03,3.87c0,0.49,0.25,0.55,0.62,0.55h0.65c0.06,0,0.12,0.03,0.12,0.11v0.39
			c0,0.09-0.06,0.12-0.15,0.12c-0.19,0-0.8-0.05-2.25-0.05c-1.54,0-2.22,0.05-2.37,0.05c-0.09,0-0.12-0.03-0.12-0.11v-0.42
			c0-0.06,0.03-0.09,0.12-0.09h0.62c0.31,0,0.65-0.03,0.71-0.45c0.03-0.22,0.06-3.54,0.06-4.38v-1.08c0-0.37-0.03-3.14-0.05-3.34
			c-0.05-0.37-0.2-0.52-0.63-0.52h-0.8c-0.09,0-0.12-0.03-0.12-0.11v-0.4c0-0.08,0.03-0.11,0.09-0.11c0.18,0,0.99,0.05,2.5,0.05
			c1.48,0,1.97-0.05,2.19-0.05c0.09,0,0.12,0.06,0.12,0.14v0.35c0,0.09-0.06,0.12-0.12,0.12h-0.59c-0.34,0-0.59,0.12-0.59,0.42
			c0,0.15-0.03,3.54-0.03,3.73V55.94z"></path>
		<path class="st0" d="M111.13,51.02c1.16,0.94,2.1,2.47,2.1,4.56c0,1.14-0.31,2.34-1.14,3.39c-0.99,1.23-2.31,2.19-4.62,2.19
			c-0.92,0-2.25-0.28-3.48-1.02c-1.09-0.66-2.25-2.34-2.25-4.56c0-0.93,0.26-2.39,1.42-3.82c1.36-1.66,3.02-1.97,4.35-1.97
			C108.64,49.79,109.87,50,111.13,51.02z M105.22,51.33c-0.94,0.91-1.39,2.5-1.39,3.73c0,4.01,2.47,5.42,3.76,5.42
			c3.11,0,3.61-3.45,3.61-4.75c0-3.36-2.28-5.27-3.76-5.27C107.16,50.47,106.26,50.31,105.22,51.33z"></path>
		<path class="st0" d="M116.65,53.96c0,2.62,0.12,4.78,0.15,5.26c0.03,0.77,0.22,1.14,0.77,1.14h0.4c0.12,0,0.12,0.06,0.12,0.14
			v0.35c0,0.09,0,0.12-0.12,0.12c-0.15,0-1.08-0.05-1.66-0.05c-0.4,0-1.45,0.05-1.6,0.05c-0.06,0-0.09-0.03-0.09-0.14v-0.39
			c0-0.03,0.03-0.09,0.09-0.09h0.52c0.4,0,0.62-0.34,0.69-1.28c0.02-0.28,0.11-2.43,0.11-4.9v-1.96c0-0.92-0.52-1.63-1.2-1.63h-0.49
			c-0.06-0.02-0.09-0.05-0.09-0.11v-0.42c0-0.06,0.03-0.09,0.09-0.09c0.08,0,0.2,0.01,0.48,0.03c0.28,0.01,0.69,0.01,1.37,0.01
			c0.26,0,0.49-0.01,0.68-0.03c0.2,0,0.34-0.01,0.43-0.01c0.18,0,0.28,0.05,0.37,0.14c0.15,0.15,3.17,3.94,3.48,4.38
			c0.22,0.25,2.62,3.24,2.87,3.54h0.06v-1.6c0-1.36,0-2.13-0.03-2.9c-0.03-0.59-0.09-2.1-0.17-2.36c-0.11-0.37-0.45-0.59-0.82-0.59
			h-0.49c-0.09,0-0.09-0.06-0.09-0.14V50.1c0-0.09,0-0.12,0.12-0.12c0.19,0,0.68,0.05,1.73,0.05c0.92,0,1.29-0.05,1.48-0.05
			c0.12,0,0.15,0.06,0.15,0.11v0.35c0,0.09-0.03,0.15-0.09,0.15h-0.43c-0.31,0-0.46,0.25-0.51,0.82c-0.08,1.05-0.23,3.64-0.23,5.21
			v4.07c0,0.22,0,0.43-0.19,0.43c-0.22,0-0.4-0.12-0.52-0.25c-0.12-0.15-0.96-1.11-1.91-2.25c-1.08-1.33-2.28-2.77-2.47-3.02
			c-0.22-0.22-2.68-3.3-2.87-3.51h-0.09V53.96z"></path>
		<path class="st0" d="M129.41,56.69c-0.12,0.35-0.88,2.56-0.96,2.97c-0.03,0.12-0.03,0.25-0.03,0.32c0,0.2,0.25,0.37,0.55,0.37
			h0.65c0.12,0,0.15,0.03,0.15,0.08v0.39c0,0.09-0.03,0.15-0.12,0.15c-0.22,0-0.86-0.05-1.94-0.05c-1.14,0-1.48,0.05-1.7,0.05
			c-0.09,0-0.09-0.09-0.09-0.2v-0.29c0-0.09,0.03-0.12,0.09-0.12h0.46c0.43,0,0.71-0.22,0.99-0.69c0.15-0.28,1.26-3.05,1.73-4.34
			c0.11-0.31,1.36-3.64,1.51-4.04c0.03-0.15,0.12-0.43,0.03-0.52c-0.05-0.05-0.09-0.14-0.09-0.19c0-0.06,0.03-0.12,0.15-0.15
			c0.49-0.12,1.34-0.59,1.53-0.77c0.09-0.09,0.15-0.15,0.23-0.15c0.09,0,0.15,0.18,0.19,0.28c0.28,0.96,1.48,4.41,1.76,5.39
			c0.37,1.2,1.36,4.07,1.57,4.48c0.28,0.52,0.68,0.71,0.99,0.71h0.49c0.09,0,0.12,0.03,0.12,0.11v0.32c0,0.09-0.03,0.19-0.15,0.19
			c-0.28,0-0.59-0.05-2.28-0.05c-1.29,0-1.82,0.05-2.16,0.05c-0.12,0-0.15-0.09-0.15-0.19v-0.31c0-0.09,0.03-0.12,0.12-0.12h0.4
			c0.43,0,0.55-0.15,0.46-0.57c-0.12-0.55-0.74-2.53-0.93-3.1H129.41z M132.83,56.08c-0.15-0.45-1.2-3.96-1.29-4.27
			c-0.06-0.19-0.09-0.28-0.15-0.28c-0.09,0-0.15,0.06-0.2,0.2c-0.06,0.2-1.45,3.99-1.56,4.34H132.83z"></path>
		<path class="st0" d="M147.62,57.76c0.03,0.03,0.03,0.06,0.03,0.15c-0.06,0.09-0.68,2.65-0.77,3.07c-0.4-0.02-4.84-0.05-6.41-0.05
			c-1.39,0-1.94,0.05-2.13,0.05c-0.12,0-0.12-0.03-0.12-0.14v-0.35c0-0.09,0-0.12,0.09-0.12h0.62c0.55,0,0.65-0.22,0.65-0.42
			c0-0.28,0.06-4.13,0.06-5.05v-0.86c0-0.99-0.03-2.62-0.06-2.88c-0.03-0.4-0.09-0.55-0.49-0.55h-0.65c-0.09,0-0.12-0.09-0.12-0.14
			V50.1c0-0.09,0.03-0.12,0.12-0.12c0.15,0,0.71,0.05,2.13,0.05c1.66,0,2.31-0.05,2.43-0.05s0.15,0.06,0.15,0.14v0.35
			c0,0.06-0.03,0.12-0.15,0.12h-0.83c-0.46,0-0.52,0.15-0.52,0.57c0,0.22-0.06,2.53-0.06,3.61v1.33c0,0.28,0,3.61,0.06,4.27h0.86
			c0.86,0,1.97,0,2.59-0.08c0.86-0.12,1.85-1.97,2.07-2.56c0.06-0.06,0.09-0.09,0.19-0.06L147.62,57.76z"></path>
		<path class="st0" d="M162.73,55.35c0-0.46,0-4.28-0.03-4.35h-0.06c-0.12,0.22-2.06,4.72-2.25,5.12c-0.23,0.49-1.8,4.13-1.88,4.28
			c-0.06,0.12-0.19,0.34-0.34,0.34c-0.09,0-0.19-0.09-0.25-0.28c-0.06-0.09-2.07-4.9-2.16-5.15c-0.28-0.71-1.7-4.16-1.88-4.35
			c-0.06,0.22-0.08,4.1-0.08,4.28c0,0.19-0.01,2.8,0.08,3.81c0.06,0.71,0.25,1.29,0.74,1.29h0.68c0.09,0,0.12,0.06,0.12,0.11v0.39
			c0,0.06-0.03,0.12-0.15,0.12c-0.15,0-0.59-0.05-1.76-0.05c-1.33,0-1.85,0.05-2,0.05c-0.12,0-0.12-0.03-0.12-0.14v-0.39
			c0-0.03,0-0.09,0.09-0.09h0.71c0.52,0,0.69-0.55,0.77-1.09c0.14-1.08,0.23-4.87,0.23-5.15v-2.64c0-0.55-0.08-0.89-0.76-0.89h-0.68
			c-0.09,0-0.12-0.06-0.12-0.11v-0.42c0-0.03,0.03-0.09,0.12-0.09c0.15,0,0.55,0.05,2.19,0.05c0.74,0,1.17-0.05,1.36-0.05
			c0.19,0,0.29,0.06,0.37,0.26c0.55,1.45,2.71,6.56,3.17,7.83c0.14-0.28,1.23-2.82,1.63-3.73c0.28-0.65,1.66-3.82,1.74-4.13
			c0.05-0.15,0.23-0.19,0.6-0.19c2.25,0.02,2.77-0.05,2.96-0.05c0.06,0,0.09,0.06,0.09,0.14v0.32c0,0.09-0.03,0.15-0.12,0.15h-0.68
			c-0.4,0-0.43,0.28-0.45,0.6c-0.02,0.34-0.02,3.42-0.02,3.82v1.08c0,0.92,0.03,3.17,0.03,3.44c0.01,0.59,0.15,0.83,0.43,0.83h0.83
			c0.09,0,0.09,0.06,0.09,0.11v0.35c0,0.09,0,0.15-0.12,0.15c-0.19,0-0.93-0.05-2.28-0.05c-1.51,0-2.1,0.05-2.31,0.05
			c-0.09,0-0.12-0.06-0.12-0.14v-0.35c0-0.09,0.03-0.12,0.12-0.12h0.96c0.28,0,0.4-0.09,0.45-0.54c0.02-0.15,0.05-2.37,0.05-3.61
			V55.35z"></path>
		<path class="st0" d="M169.79,56.69c-0.12,0.35-0.88,2.56-0.96,2.97c-0.03,0.12-0.03,0.25-0.03,0.32c0,0.2,0.25,0.37,0.55,0.37H170
			c0.12,0,0.15,0.03,0.15,0.08v0.39c0,0.09-0.03,0.15-0.12,0.15c-0.22,0-0.86-0.05-1.94-0.05c-1.14,0-1.48,0.05-1.69,0.05
			c-0.09,0-0.09-0.09-0.09-0.2v-0.29c0-0.09,0.03-0.12,0.09-0.12h0.46c0.43,0,0.71-0.22,0.99-0.69c0.15-0.28,1.26-3.05,1.73-4.34
			c0.11-0.31,1.36-3.64,1.51-4.04c0.03-0.15,0.12-0.43,0.03-0.52c-0.05-0.05-0.09-0.14-0.09-0.19c0-0.06,0.03-0.12,0.15-0.15
			c0.49-0.12,1.34-0.59,1.53-0.77c0.09-0.09,0.15-0.15,0.23-0.15c0.09,0,0.15,0.18,0.19,0.28c0.28,0.96,1.48,4.41,1.76,5.39
			c0.37,1.2,1.36,4.07,1.57,4.48c0.28,0.52,0.68,0.71,0.99,0.71h0.49c0.09,0,0.12,0.03,0.12,0.11v0.32c0,0.09-0.03,0.19-0.15,0.19
			c-0.28,0-0.59-0.05-2.28-0.05c-1.29,0-1.82,0.05-2.16,0.05c-0.12,0-0.15-0.09-0.15-0.19v-0.31c0-0.09,0.03-0.12,0.12-0.12h0.4
			c0.43,0,0.55-0.15,0.46-0.57c-0.12-0.55-0.74-2.53-0.93-3.1H169.79z M173.21,56.08c-0.15-0.45-1.2-3.96-1.29-4.27
			c-0.06-0.19-0.09-0.28-0.15-0.28c-0.09,0-0.15,0.06-0.2,0.2c-0.06,0.2-1.45,3.99-1.56,4.34H173.21z"></path>
		<path class="st0" d="M181.87,56.77c0,0.77,0.03,3.02,0.05,3.25c0.02,0.22,0.17,0.34,0.35,0.34h0.59c0.06,0,0.12,0.03,0.12,0.08
			v0.42c0,0.06-0.03,0.12-0.09,0.12c-0.18,0-0.65-0.05-1.97-0.05c-1.33,0-1.82,0.05-1.97,0.05c-0.06,0-0.09-0.03-0.09-0.11v-0.42
			c0-0.06,0.03-0.09,0.09-0.09h0.56c0.28,0,0.4-0.12,0.42-0.29c0.01-0.12,0.05-2.93,0.05-4.84v-0.89c0-0.28-0.03-3.24-0.03-3.37
			c0-0.19-0.09-0.37-0.46-0.37H179c-0.09,0-0.12-0.03-0.12-0.11v-0.42c0-0.06,0.03-0.09,0.12-0.09c0.19,0,0.65,0.05,1.97,0.05
			c1.2,0,1.69-0.05,1.91-0.05c0.09,0,0.12,0.03,0.12,0.11v0.39c0,0.09-0.03,0.12-0.12,0.12h-0.49c-0.31,0-0.46,0.09-0.46,0.45
			c0,0.25-0.06,2.65-0.06,3.39v0.68h0.28c0.18,0,0.34-0.06,0.52-0.22c0.29-0.25,2.97-3.59,3.14-3.82c0.22-0.31,0.03-0.49-0.25-0.49
			h-0.23c-0.06,0-0.08-0.03-0.08-0.11V50.1c0-0.09,0.03-0.12,0.09-0.12c0.19,0,0.8,0.05,1.82,0.05c0.62,0,1.14-0.05,1.33-0.05
			c0.09,0,0.12,0.03,0.12,0.11v0.39c0,0.09-0.06,0.12-0.12,0.12h-0.31c-0.22,0-0.55,0.06-0.86,0.26c-0.72,0.48-2.9,2.99-3.48,3.76
			c0.62,0.77,3.76,4.84,4.22,5.38c0.28,0.34,0.68,0.37,0.92,0.37h0.34c0.09,0,0.12,0.06,0.12,0.11v0.39c0,0.09-0.03,0.12-0.12,0.12
			c-0.15,0-0.71-0.05-2.13-0.05c-1.29,0-1.88,0.05-2.1,0.05c-0.06,0-0.09-0.03-0.09-0.12v-0.39c0-0.06,0.03-0.09,0.09-0.09h0.22
			c0.28,0,0.31-0.28,0.25-0.4c-0.15-0.31-2.65-3.88-2.9-4.13c-0.15-0.15-0.34-0.22-0.52-0.22h-0.28V56.77z"></path>
		<path class="st0" d="M193.13,56.46c0.02,0.83,0.05,2.34,0.05,2.62c0,0.8,0.28,1.11,0.62,1.2c0.25,0.06,0.62,0.12,1.2,0.12
			c0.28,0,0.99-0.03,1.29-0.06c0.28-0.03,0.86-0.19,1.26-0.52c0.28-0.25,1.14-1.26,1.43-1.63c0.06-0.08,0.11-0.09,0.17-0.06
			l0.25,0.15c0.05,0.03,0.06,0.08,0.03,0.15l-0.74,2.31c-0.05,0.14-0.15,0.23-0.34,0.23c-0.08,0-0.42-0.02-1.37-0.03
			c-0.97,0-2.56-0.02-5.13-0.02c-0.57,0-0.99,0.02-1.31,0.02c-0.31,0.01-0.52,0.03-0.66,0.03c-0.09,0-0.12-0.03-0.12-0.12v-0.37
			c0-0.09,0.03-0.12,0.15-0.12h0.52c0.71,0,0.77-0.09,0.77-0.66v-3.67v-1.51c0-1.26-0.03-3.17-0.06-3.39
			c-0.06-0.42-0.22-0.54-0.68-0.54h-0.59c-0.06,0-0.09-0.03-0.09-0.11v-0.4c0-0.08,0.02-0.11,0.09-0.11c0.34,0,0.89,0.06,2.16,0.05
			h0.43c0.68,0,4.22-0.03,4.9-0.03c0.25,0,0.54-0.01,0.62-0.01s0.11,0.03,0.12,0.09c0.06,0.2,0.65,2.3,0.71,2.45
			c0.03,0.09,0.01,0.14-0.05,0.17l-0.28,0.12c-0.05,0.02-0.09,0-0.14-0.08c-0.06-0.09-1.33-1.51-1.69-1.73
			c-0.32-0.18-0.74-0.39-1.17-0.4l-2.34-0.06L193.12,55c0.46,0,1.57-0.03,1.76-0.08c0.34-0.06,0.52-0.19,0.71-0.55
			c0.09-0.2,0.25-0.59,0.25-0.86c0-0.09,0.06-0.12,0.12-0.12l0.4,0.03c0.06,0,0.11,0.03,0.09,0.12c-0.03,0.25-0.03,1.26-0.03,1.66
			c0,0.62,0.06,1.36,0.09,1.69c0,0.08-0.03,0.09-0.12,0.11l-0.34,0.06c-0.06,0.02-0.09-0.01-0.12-0.11
			c-0.06-0.25-0.17-0.59-0.25-0.77c-0.14-0.31-0.43-0.52-0.77-0.55c-0.55-0.06-1.29-0.09-1.79-0.09L193.13,56.46z"></path>
		<path class="st0" d="M205.07,57.17c0,0.11-0.06,0.14-0.18,0.14h-4.32c-0.09,0-0.12-0.03-0.12-0.09v-0.8
			c0-0.09,0.03-0.12,0.12-0.12h4.32c0.12,0,0.18,0.03,0.18,0.15V57.17z"></path>
		<path class="st0" d="M207.4,51.36c0-0.52-0.12-0.77-0.52-0.77h-0.71c-0.09,0-0.12-0.03-0.12-0.14V50.1c0-0.09,0.03-0.12,0.15-0.12
			c0.15,0,0.89,0.05,2.37,0.05c1.29,0,2.03-0.05,2.22-0.05c0.09,0,0.12,0.03,0.12,0.11v0.39c0,0.09-0.03,0.12-0.12,0.12h-0.65
			c-0.46,0-0.74,0.28-0.75,0.6c-0.02,0.19-0.05,1.11-0.05,2v1.91c0,0.77,0.02,1.86,0.05,2.36c0.05,0.71,0.17,1.42,0.54,1.91
			c0.52,0.71,1.36,0.96,2.1,0.96c0.71,0,1.57-0.28,2.06-0.74c0.59-0.59,0.89-1.48,0.89-2.6v-2.77c0-1.23-0.12-2.59-0.17-2.94
			c-0.05-0.4-0.29-0.68-0.63-0.68h-0.55c-0.09,0-0.12-0.05-0.12-0.11V50.1c0-0.09,0.03-0.12,0.12-0.12c0.15,0,0.86,0.05,1.88,0.05
			c0.96,0,1.45-0.05,1.57-0.05c0.14,0,0.15,0.05,0.15,0.12v0.35c0,0.09-0.01,0.14-0.09,0.14h-0.55c-0.55,0-0.62,0.43-0.65,0.6
			c-0.03,0.19-0.03,2.34-0.03,2.54c0,0.22-0.03,2.9-0.09,3.51c-0.09,1.26-0.46,2.22-1.29,2.96c-0.65,0.59-1.63,0.96-2.8,0.96
			c-0.74,0-1.63-0.12-2.22-0.37c-0.89-0.37-1.51-1.08-1.82-2.07c-0.22-0.68-0.28-1.69-0.28-3.71V51.36z"></path>
		<path class="st0" d="M219.3,53.75c0-1.02,0-2.65-0.02-2.82c-0.03-0.26-0.2-0.34-0.54-0.34h-0.8c-0.06,0-0.09-0.03-0.09-0.11V50.1
			c0-0.09,0.03-0.12,0.09-0.12c0.19,0,0.74,0.05,2.28,0.05c0.28,0,1.17-0.05,1.7-0.05c1.85,0,2.74,0.17,3.64,0.79
			c0.71,0.52,1.17,1.39,1.17,2.34c0,1.91-1.48,3.11-4.1,3.11c-0.52,0-0.99,0-1.39-0.06v0.68c0,0.74,0,2.83,0.02,3.04
			c0.05,0.34,0.2,0.49,0.48,0.49h0.86c0.12,0,0.12,0.06,0.12,0.11v0.35c0,0.09,0,0.15-0.12,0.15c-0.22,0-0.71-0.05-2.37-0.05
			c-1.36,0-1.97,0.05-2.13,0.05c-0.12,0-0.12-0.06-0.12-0.11v-0.39c0-0.09,0-0.12,0.09-0.12h0.49c0.52,0,0.65-0.06,0.69-0.48
			c0.01-0.15,0.05-2.56,0.05-4.34V53.75z M221.24,55.6c0.28,0.09,0.71,0.12,1.11,0.12c0.68,0,1.48-0.52,1.85-1.05
			c0.31-0.46,0.37-1.05,0.37-1.6c0-2.1-1.7-2.57-2.43-2.57c-0.28,0-0.65-0.01-0.89,0.11V55.6z"></path>
	</g>
</g>
</svg>
